<svg width="100%" height="100%" viewBox="0 0 24 24" xmlns="http://www.w3.org/2000/svg">
  <path d="M6.66667 14.4C6.28889 14.4 5.97222 14.285 5.71667 14.055C5.46111 13.825 5.33333 13.54 5.33333 13.2C5.33333 12.86 5.46111 12.575 5.71667 12.345C5.97222 12.115 6.28889 12 6.66667 12C7.04444 12 7.36111 12.115 7.61667 12.345C7.87222 12.575 8 12.86 8 13.2C8 13.54 7.87222 13.825 7.61667 14.055C7.36111 14.285 7.04444 14.4 6.66667 14.4ZM12 14.4C11.6222 14.4 11.3056 14.285 11.05 14.055C10.7944 13.825 10.6667 13.54 10.6667 13.2C10.6667 12.86 10.7944 12.575 11.05 12.345C11.3056 12.115 11.6222 12 12 12C12.3778 12 12.6944 12.115 12.95 12.345C13.2056 12.575 13.3333 12.86 13.3333 13.2C13.3333 13.54 13.2056 13.825 12.95 14.055C12.6944 14.285 12.3778 14.4 12 14.4ZM17.3333 14.4C16.9556 14.4 16.6389 14.285 16.3833 14.055C16.1278 13.825 16 13.54 16 13.2C16 12.86 16.1278 12.575 16.3833 12.345C16.6389 12.115 16.9556 12 17.3333 12C17.7111 12 18.0278 12.115 18.2833 12.345C18.5389 12.575 18.6667 12.86 18.6667 13.2C18.6667 13.54 18.5389 13.825 18.2833 14.055C18.0278 14.285 17.7111 14.4 17.3333 14.4ZM2.66667 24C1.93333 24 1.30556 23.765 0.783333 23.295C0.261111 22.825 0 22.26 0 21.6V4.8C0 4.14 0.261111 3.575 0.783333 3.105C1.30556 2.635 1.93333 2.4 2.66667 2.4H4V0H6.66667V2.4H17.3333V0H20V2.4H21.3333C22.0667 2.4 22.6944 2.635 23.2167 3.105C23.7389 3.575 24 4.14 24 4.8V21.6C24 22.26 23.7389 22.825 23.2167 23.295C22.6944 23.765 22.0667 24 21.3333 24H2.66667ZM2.66667 21.6H21.3333V9.6H2.66667V21.6ZM2.66667 7.2H21.3333V4.8H2.66667V7.2Z"/>
</svg>
