<svg width="24" height="16" viewBox="0 0 24 16" fill="none" xmlns="http://www.w3.org/2000/svg">
<g clip-path="url(#clip0_1_57)">
<path d="M22.2026 3.05176e-05H1.79742C0.804703 3.05176e-05 0 0.81885 0 1.82898V14.1711C0 15.1812 0.804703 16 1.79742 16H22.2026C23.1952 16 24 15.1812 24 14.1711V1.82898C24 0.81885 23.1953 3.05176e-05 22.2026 3.05176e-05Z" fill="#41479B"/>
<path d="M23.9751 1.52665C23.8335 0.660512 23.094 0 22.2026 0H21.7349L14.069 5.11062V4.76711e-05H9.93103V5.11067L2.26509 4.76711e-05H1.79742C0.906 4.76711e-05 0.166547 0.660512 0.0248906 1.52669L6.57698 5.89481H0V10.1053H6.57698L0.0248906 14.4734C0.166547 15.3395 0.906 16 1.79742 16H2.26509L9.93103 10.8894V16H14.069V10.8894L21.7349 16H22.2026C23.094 16 23.8335 15.3395 23.9751 14.4734L17.423 10.1052H24V5.89471H17.423L23.9751 1.52665Z" fill="#F5F5F5"/>
<path d="M13.2414 3.05176e-05H10.7586V6.73686H0V9.2632H10.7586V16H13.2414V9.2632H24V6.73686H13.2414V3.05176e-05Z" fill="#FF4B55"/>
<path d="M1.16217 15.8821L9.90825 10.1053H8.38819L0.432373 15.3602C0.627045 15.5914 0.877217 15.7725 1.16217 15.8821Z" fill="#FF4B55"/>
<path d="M16.237 10.1053H14.7169L23.188 15.7004C23.425 15.542 23.6228 15.3281 23.7639 15.0768L16.237 10.1053Z" fill="#FF4B55"/>
<path d="M0.189789 1.01116L7.58338 5.89475H9.10345L0.725383 0.360901C0.500429 0.531276 0.316351 0.754023 0.189789 1.01116Z" fill="#FF4B55"/>
<path d="M15.589 5.89475L23.5594 0.630146C23.3626 0.39972 23.1105 0.219614 22.8235 0.112152L14.069 5.89475H15.589Z" fill="#FF4B55"/>
</g>
<defs>
<clipPath id="clip0_1_57">
<rect width="24" height="16" fill="white"/>
</clipPath>
</defs>
</svg>
