<svg width="24" height="24" viewBox="0 0 24 24" fill="none" xmlns="http://www.w3.org/2000/svg">
  <g clip-path="url(#clip0_12_2)">
    <path d="M4.5 24C3.675 24 2.96875 23.7389 2.38125 23.2167C1.79375 22.6944 1.5 22.0667 1.5 21.3333V4H0V1.33333H7.5V0H16.5V1.33333H24V4H22.5V21.3333C22.5 22.0667 22.2063 22.6944 21.6188 23.2167C21.0313 23.7389 20.325 24 19.5 24H4.5ZM19.5 4H4.5V21.3333H19.5V4ZM7.5 18.6667H10.5V6.66667H7.5V18.6667ZM13.5 18.6667H16.5V6.66667H13.5V18.6667Z" fill="black"/>
  </g>
  <defs>
    <clipPath id="clip0_12_2">
      <rect width="24" height="24" fill="white"/>
    </clipPath>
  </defs>
</svg>
